<svg id="visual" viewBox="0 0 900 600" width="900" height="600" xmlns="http://www.w3.org/2000/svg" xmlns:xlink="http://www.w3.org/1999/xlink" version="1.1"><path d="M0 241L13.7 235C27.3 229 54.7 217 82 203C109.3 189 136.7 173 163.8 176C191 179 218 201 245.2 206C272.3 211 299.7 199 327 178C354.3 157 381.7 127 409 132C436.3 137 463.7 177 491 186C518.3 195 545.7 173 573 171C600.3 169 627.7 187 654.8 194C682 201 709 197 736.2 196C763.3 195 790.7 197 818 196C845.3 195 872.7 191 886.3 189L900 187L900 0L886.3 0C872.7 0 845.3 0 818 0C790.7 0 763.3 0 736.2 0C709 0 682 0 654.8 0C627.7 0 600.3 0 573 0C545.7 0 518.3 0 491 0C463.7 0 436.3 0 409 0C381.7 0 354.3 0 327 0C299.7 0 272.3 0 245.2 0C218 0 191 0 163.8 0C136.7 0 109.3 0 82 0C54.7 0 27.3 0 13.7 0L0 0Z" fill="#8b7ff1"></path><path d="M0 289L13.7 285C27.3 281 54.7 273 82 262C109.3 251 136.7 237 163.8 247C191 257 218 291 245.2 296C272.3 301 299.7 277 327 251C354.3 225 381.7 197 409 204C436.3 211 463.7 253 491 264C518.3 275 545.7 255 573 248C600.3 241 627.7 247 654.8 250C682 253 709 253 736.2 256C763.3 259 790.7 265 818 267C845.3 269 872.7 267 886.3 266L900 265L900 185L886.3 187C872.7 189 845.3 193 818 194C790.7 195 763.3 193 736.2 194C709 195 682 199 654.8 192C627.7 185 600.3 167 573 169C545.7 171 518.3 193 491 184C463.7 175 436.3 135 409 130C381.7 125 354.3 155 327 176C299.7 197 272.3 209 245.2 204C218 199 191 177 163.8 174C136.7 171 109.3 187 82 201C54.7 215 27.3 227 13.7 233L0 239Z" fill="#6f63ec"></path><path d="M0 355L13.7 358C27.3 361 54.7 367 82 359C109.3 351 136.7 329 163.8 335C191 341 218 375 245.2 386C272.3 397 299.7 385 327 367C354.3 349 381.7 325 409 335C436.3 345 463.7 389 491 395C518.3 401 545.7 369 573 355C600.3 341 627.7 345 654.8 349C682 353 709 357 736.2 366C763.3 375 790.7 389 818 394C845.3 399 872.7 395 886.3 393L900 391L900 263L886.3 264C872.7 265 845.3 267 818 265C790.7 263 763.3 257 736.2 254C709 251 682 251 654.8 248C627.7 245 600.3 239 573 246C545.7 253 518.3 273 491 262C463.7 251 436.3 209 409 202C381.7 195 354.3 223 327 249C299.7 275 272.3 299 245.2 294C218 289 191 255 163.8 245C136.7 235 109.3 249 82 260C54.7 271 27.3 279 13.7 283L0 287Z" fill="#4f46e5"></path><path d="M0 553L13.7 544C27.3 535 54.7 517 82 504C109.3 491 136.7 483 163.8 485C191 487 218 499 245.2 499C272.3 499 299.7 487 327 494C354.3 501 381.7 527 409 538C436.3 549 463.7 545 491 539C518.3 533 545.7 525 573 525C600.3 525 627.7 533 654.8 529C682 525 709 509 736.2 510C763.3 511 790.7 529 818 536C845.3 543 872.7 539 886.3 537L900 535L900 389L886.3 391C872.7 393 845.3 397 818 392C790.7 387 763.3 373 736.2 364C709 355 682 351 654.8 347C627.7 343 600.3 339 573 353C545.7 367 518.3 399 491 393C463.7 387 436.3 343 409 333C381.7 323 354.3 347 327 365C299.7 383 272.3 395 245.2 384C218 373 191 339 163.8 333C136.7 327 109.3 349 82 357C54.7 365 27.3 359 13.7 356L0 353Z" fill="#433bc8"></path><path d="M0 601L13.7 601C27.3 601 54.7 601 82 601C109.3 601 136.7 601 163.8 601C191 601 218 601 245.2 601C272.3 601 299.7 601 327 601C354.3 601 381.7 601 409 601C436.3 601 463.7 601 491 601C518.3 601 545.7 601 573 601C600.3 601 627.7 601 654.8 601C682 601 709 601 736.2 601C763.3 601 790.7 601 818 601C845.3 601 872.7 601 886.3 601L900 601L900 533L886.3 535C872.7 537 845.3 541 818 534C790.7 527 763.3 509 736.2 508C709 507 682 523 654.8 527C627.7 531 600.3 523 573 523C545.7 523 518.3 531 491 537C463.7 543 436.3 547 409 536C381.7 525 354.3 499 327 492C299.7 485 272.3 497 245.2 497C218 497 191 485 163.8 483C136.7 481 109.3 489 82 502C54.7 515 27.3 533 13.7 542L0 551Z" fill="#3730ab"></path></svg>