<svg id="visual" viewBox="0 0 960 540" width="960" height="540" xmlns="http://www.w3.org/2000/svg" xmlns:xlink="http://www.w3.org/1999/xlink" version="1.1"><path d="M0 33L120 66L240 55L360 50L480 44L600 39L720 66L840 55L960 66L960 0L840 0L720 0L600 0L480 0L360 0L240 0L120 0L0 0Z" fill="#daf5ed"></path><path d="M0 87L120 168L240 120L360 168L480 125L600 158L720 168L840 168L960 174L960 64L840 53L720 64L600 37L480 42L360 48L240 53L120 64L0 31Z" fill="#94dfe5"></path><path d="M0 158L120 212L240 206L360 217L480 163L600 201L720 233L840 233L960 212L960 172L840 166L720 166L600 156L480 123L360 166L240 118L120 166L0 85Z" fill="#42c5ee"></path><path d="M0 287L120 390L240 374L360 395L480 325L600 298L720 406L840 368L960 374L960 210L840 231L720 231L600 199L480 161L360 215L240 204L120 210L0 156Z" fill="#00a5f9"></path><path d="M0 368L120 465L240 406L360 455L480 401L600 357L720 465L840 422L960 449L960 372L840 366L720 404L600 296L480 323L360 393L240 372L120 388L0 285Z" fill="#007dfb"></path><path d="M0 541L120 541L240 541L360 541L480 541L600 541L720 541L840 541L960 541L960 447L840 420L720 463L600 355L480 399L360 453L240 404L120 463L0 366Z" fill="#4f46e5"></path></svg>